<svg width="156" height="26" xmlns="http://www.w3.org/2000/svg" xmlns:xlink="http://www.w3.org/1999/xlink" viewBox="0 0 156 26"><defs><path d="M171 60.717l.977 1.957h5.558L179 60.717z" id="a"/><path d="M181.5 80.283c4.045 0 7.364-3.226 7.5-7.246-.114-3.022-1.773-5.861-4.227-7.428l-1.387 1.522c2.41 1 3.796 3.112 3.796 5.883a5.789 5.789 0 0 1-5.796 5.792c-3.113 0-5.681-2.476-5.795-5.565L174 72.378v.431c0 4.112 3.364 7.474 7.5 7.474z" id="b"/><path d="M185.755 73.094c0-2.422-1.37-4.123-3.749-4.712l-1.1-.262L188 60.55l-1.01-1.79L177 69.495h2.918c2.245 0 4.041 1.745 4.041 3.927 0 1.942-1.414 3.534-3.322 3.861.247.044.494.066.74.066 2.425 0 4.378-1.898 4.378-4.254z" id="c"/><path d="M172.824 72.875v-.418l-1.824.969c0 4.847 4.104 8.813 9.12 8.813a9.17 9.17 0 0 0 4.88-1.388 9.04 9.04 0 0 1-3.283.617c-4.903 0-8.893-3.856-8.893-8.593z" id="d"/><path d="M171.981 57.783L171 59.326h11.215l-7.196 7.498.654 1.72L186 57.782z" id="e"/><path d="M207 73.148c0-2.765-2.262-5.048-5.146-5.246l-1.016 1.317c.139-.022.254-.022.393-.022 2.307 0 4.154 1.756 4.154 3.951 0 2.964-2.539 5.379-5.654 5.379-3.116 0-5.654-2.415-5.654-5.379 0-2.853 2.677-6.102 2.677-6.102l7.038-9.263h-2.169l-7.361 9.614S192 70.075 192 73.148v.374c.208 3.753 3.485 6.76 7.5 6.76 4.13 0 7.5-3.204 7.5-7.134z" id="f"/><path d="M195 73.258c0 2.255 1.844 4.09 4.111 4.09.356 0 .689-.044 1.022-.133a3.97 3.97 0 0 1-3.577-3.957c0-1.99 5.333-8.622 5.333-8.622L207 57.783h-2.333l-7.378 10.147S195 70.826 195 73.258z" id="g"/><path d="M203.616 64.63l-1.352 1.8c3.216.615 5.639 3.371 5.639 6.697 0 4.83-4.031 8.77-8.971 8.77-.326 0-.63-.022-.932-.045.862.25 1.748.387 2.68.387 5.126 0 9.32-4.1 9.32-9.112 0-4.032-2.656-7.244-6.384-8.497z" id="h"/><path d="M223.568 59.336c5.343 0 9.682 4.127 9.682 9.207 0 5.081-4.339 9.208-9.682 9.208-3.966 0-6.532-3.328-6.532-7.765 0-1.687.373-3.218 1.05-4.46-1.703 1.442-2.8 3.55-2.8 5.902 0 4.349 3.71 7.876 8.282 7.876 6.3 0 11.432-4.88 11.432-10.871 0-.533-.047-1.065-.117-1.576-1.236-5.303-5.622-9.074-11.315-9.074-4.852 0-8.748 2.75-10.568 6.833 2.31-3.172 6.182-5.28 10.568-5.28z" id="i"/><path d="M223.432 80.686c-5.343 0-9.682-4.127-9.682-9.208 0-5.08 4.34-9.207 9.682-9.207 3.966 0 6.532 3.328 6.532 7.765 0 1.686-.373 3.217-1.05 4.46 1.703-1.442 2.8-3.55 2.8-5.902 0-4.349-3.71-7.877-8.282-7.877-6.3 0-11.432 4.882-11.432 10.872 0 .533.047 1.065.117 1.575 1.236 5.303 5.622 9.075 11.315 9.075 4.852 0 8.748-2.751 10.568-6.834-2.31 3.173-6.182 5.28-10.568 5.28z" id="j"/><path d="M241.505 63.042c-1.03 0-1.872-.824-1.872-1.83 0-1.008.843-1.832 1.872-1.832 1.03 0 1.872.824 1.872 1.831 0 1.007-.843 1.831-1.872 1.831zm-.005-5.26c-1.937 0-3.5 1.53-3.5 3.425 0 1.894 1.563 3.423 3.5 3.423s3.5-1.529 3.5-3.423c0-1.895-1.563-3.424-3.5-3.424z" id="k"/><path d="M266 61.85v-1.133h-12v18.587h1.333v-8.613h9.334v-1.133h-9.334V61.85z" id="l"/><path d="M275.385 78.171V60.717H274v18.587h12v-1.133z" id="m"/><path d="M327 60.717h-15v1.134h6.797v17.453h1.406V61.851H327z" id="n"/><path d="M294.68 72.05l4.32-9.769 4.32 9.77zm11.835 7.254H308l-8.325-18.587h-1.372L290 79.304h1.485l2.7-6.12h9.63z" id="o"/></defs><desc>Generated with Avocode.</desc><g transform="translate(-171 -57)"><title>Group 2</title><title>Shape</title><use xlink:href="#a" fill="#fff"/><title>Shape</title><use xlink:href="#b" fill="#fff"/><title>Shape</title><use xlink:href="#c" fill="#fff"/><title>Shape</title><use xlink:href="#d" fill="#fff"/><title>Shape</title><use xlink:href="#e" fill="#fff"/><title>Shape</title><use xlink:href="#f" fill="#fff"/><title>Shape</title><use xlink:href="#g" fill="#fff"/><title>Shape</title><use xlink:href="#h" fill="#fff"/><title>Shape</title><use xlink:href="#i" fill="#fff"/><title>Shape</title><use xlink:href="#j" fill="#fff"/><title>Shape</title><use xlink:href="#k" fill="#fff"/><title>Shape</title><use xlink:href="#l" fill="#fff"/><title>Shape</title><use xlink:href="#m" fill="#fff"/><title>Shape</title><use xlink:href="#n" fill="#fff"/><title>Shape</title><use xlink:href="#o" fill="#fff"/></g></svg>