<svg width="33" height="21" xmlns="http://www.w3.org/2000/svg" xmlns:xlink="http://www.w3.org/1999/xlink" viewBox="0 0 33 21"><defs><path d="M176.326 7674.225c0-.47-.533-.939-.923-1.336a5.294 5.294 0 0 0-3.868-1.661c-1.49 0-2.874.578-3.903 1.625-1.065 1.047-1.632 2.455-1.632 3.972s.567 2.997 1.597 4.08c1.029 1.084 2.448 1.734 3.903 1.734h.035c1.455 0 2.804-.65 3.833-1.697.39-.398.922-.94.922-1.445V7683h.71v-13h-.71v4.225zm-4.79 7.692c-2.662 0-4.826-2.311-4.826-5.02 0-1.3.496-2.636 1.419-3.575.922-.903 2.129-1.516 3.406-1.516h.036c2.661 0 4.826 2.383 4.826 5.091-.036 2.672-2.2 5.02-4.862 5.02z" id="b"/><path d="M179.14 7670h9.558v13h-9.558z" id="a"/><path d="M187.626 7671.806c-.627-.47-1.513-.578-2.583-.29l-5.165 1.915V7670h-.738v13h.738v-8.775l5.35-2.022c.848-.217 1.512-.145 1.918.18.554.398.812 1.264.812 2.564V7683h.738v-8.017c.037-1.552-.332-2.6-1.07-3.177" id="d"/><path d="M195.779 7680.734c1.61-.71 2.751-2.345 2.751-4.299 0-1.243-.47-2.38-1.208-3.232l1.611-1.706-.47-.497-1.678 1.67c-.738-.604-1.677-1.066-2.684-1.066h-.034c-1.174 0-2.282.533-3.12 1.42a4.88 4.88 0 0 0-1.31 3.34c0 1.243.403 2.452 1.242 3.34.806.852 1.946 1.35 2.953 1.385 2.35 0 4.363 2.06 4.363 4.582 0 2.523-1.913 4.654-4.295 4.654-2.383 0-4.229-2.025-4.229-4.512H189c0 2.842 2.248 5.187 5 5.187s5-2.416 5-5.329c-.033-2.238-1.375-4.191-3.221-4.937m-5.403-4.334c0-1.066.403-2.132 1.107-2.878.705-.746 1.645-1.207 2.618-1.207 2.08 0 3.758 1.918 3.758 4.085s-1.678 4.085-3.725 4.085c-1.006 0-1.946-.462-2.65-1.243-.739-.746-1.108-1.777-1.108-2.842" id="e"/><clipPath id="c"><use xlink:href="#a"/></clipPath></defs><desc>Generated with Avocode.</desc><g transform="translate(-166 -7670)"><title>Group 9 Copy 2</title><title>Fill 2</title><use xlink:href="#b" fill="#bfbfbf"/><title>Group 6</title><title>Clip 5</title><g clip-path="url(#c)"><title>Fill 4</title><use xlink:href="#d" fill="#bfbfbf"/></g><title>Fill 7</title><use xlink:href="#e" fill="#bfbfbf"/></g></svg>