<svg width="42" height="42" xmlns="http://www.w3.org/2000/svg" xmlns:xlink="http://www.w3.org/1999/xlink" viewBox="0 0 42 42"><defs><path d="M181.816 7605.276c-.185-2.192-.508-3.683-1.06-5.042-.508-1.36-1.246-2.5-2.444-3.683-1.245-1.184-2.26-1.841-3.688-2.367-1.384-.483-2.813-.833-5.072-1.009-2.074-.175-2.766-.175-8.529-.175s-6.454 0-8.76.175c-2.12 0-3.688.351-5.07 1.009-1.384.482-2.444 1.183-3.69 2.367-1.244 1.184-1.935 2.368-2.443 3.683-.507 1.315-.876 2.85-.876 5.042-.184 2.323-.184 3.025-.184 8.724 0 5.7 0 6.4.184 8.724.185 2.192.508 3.683 1.06 5.042.508 1.36 1.246 2.5 2.444 3.683 1.245 1.184 2.26 1.841 3.689 2.367 1.383.483 2.812.833 5.07 1.009 2.122.175 2.813.175 8.576.175h.922v-16.616h-4.38v-5.7h4.38v-2.191c0-3.815 2.997-7.234 6.685-7.234h4.841v5.655h-4.84c-.508 0-1.153.614-1.153 1.535v2.28h5.947v5.655h-5.947v16.572c.737-.044 1.29-.044 2.074-.131 2.26-.176 3.688-.483 5.072-1.009 1.383-.482 2.627-1.183 3.688-2.367 1.245-1.184 1.936-2.368 2.443-3.683.507-1.359.876-2.85 1.06-5.042.185-2.192.185-3.025.185-8.724 0-5.7 0-6.4-.184-8.724z" id="a"/></defs><desc>Generated with Avocode.</desc><g transform="translate(-140 -7593)"><title>Shape Copy 4</title><use xlink:href="#a" fill="#666"/></g></svg>