<svg width="44" height="42" xmlns="http://www.w3.org/2000/svg" xmlns:xlink="http://www.w3.org/1999/xlink" viewBox="0 0 44 42"><defs><path d="M211.667 7614.005c0-3.9 3.281-7.06 7.329-7.06 4.047 0 7.328 3.16 7.328 7.06 0 3.9-3.281 7.061-7.328 7.061-4.048 0-7.329-3.161-7.329-7.06zM241 7614c0 5.712 0 6.552-.183 8.736-.184 2.184-.55 3.696-1.1 5.04-.55 1.344-1.284 2.52-2.567 3.696-1.1 1.176-2.383 1.848-3.85 2.352-1.467.504-2.933.84-5.317 1.008-2.2.168-2.933.168-8.983.168-6.05 0-6.783 0-8.983-.168-2.384-.168-3.85-.504-5.317-1.008s-2.567-1.176-3.85-2.352-2.017-2.352-2.567-3.696c-.55-1.344-.916-2.856-1.1-5.04-.183-2.352-.183-3.024-.183-8.736 0-5.712 0-6.384.183-8.736 0-2.184.367-3.696.917-5.04.55-1.344 1.283-2.52 2.567-3.696 1.283-1.176 2.383-1.848 3.85-2.352 1.466-.672 3.116-1.008 5.316-1.008 2.384-.168 3.117-.168 9.167-.168s6.783 0 8.983.168c2.384.168 3.85.504 5.317 1.008s2.567 1.176 3.85 2.352 2.017 2.352 2.567 3.696c.55 1.344.916 2.856 1.1 5.04.183 2.352.183 3.024.183 8.736zm-10.623 0c0-5.88-5.136-10.752-11.372-10.752s-11.372 4.872-11.372 10.752c0 5.88 5.136 10.752 11.372 10.752s11.372-4.872 11.372-10.752zm2.923-11.256c0-1.344-1.1-2.52-2.567-2.52-1.466 0-2.566 1.176-2.566 2.52s1.1 2.52 2.566 2.52c1.467 0 2.567-1.176 2.567-2.52z" id="a"/></defs><desc>Generated with Avocode.</desc><g transform="translate(-197 -7593)"><title>Combined Shape Copy 2</title><use xlink:href="#a" fill="#666"/></g></svg>