<svg width="38" height="28" xmlns="http://www.w3.org/2000/svg" xmlns:xlink="http://www.w3.org/1999/xlink" viewBox="0 0 38 28"><defs><path d="M30 6387.488c0-4.983 1.163-8.919 3.488-11.808 2.358-2.89 5.78-4.783 10.266-5.68v5.182c-3.34 1.062-5.583 2.89-6.73 5.48a8.996 8.996 0 0 0-.736 4.235H44V6398H30zm24 0c0-5.05 1.195-9.002 3.586-11.858 2.423-2.857 5.813-4.733 10.168-5.63v5.182c-3.307 1.03-5.534 2.89-6.68 5.58-.655 1.428-.917 2.806-.786 4.135H68V6398H54z" id="a"/></defs><desc>Generated with Avocode.</desc><g transform="translate(-30 -6370)"><title>Shape Copy 4</title><use xlink:href="#a"/></g></svg>