<svg width="82" height="23" xmlns="http://www.w3.org/2000/svg" xmlns:xlink="http://www.w3.org/1999/xlink" viewBox="0 0 82 23"><defs><path d="M153.655 7725c.673 0 1.293.049 1.914.196.62.147 1.241.392 1.862.686v2.449a7.037 7.037 0 0 0-1.965-.882 5.404 5.404 0 0 0-1.863-.343c-.465 0-.827.098-1.086.245a.775.775 0 0 0-.414.686c0 .196.104.343.31.539.208.195.828.49 1.811.93 1.397.686 2.38 1.274 2.948 1.861.57.588.828 1.225.828 2.009 0 1.126-.414 2.008-1.241 2.644-.828.637-1.914.98-3.31.98-.88 0-1.656-.098-2.432-.294-.776-.196-1.396-.392-1.862-.637v-2.547c1.552.833 2.897 1.225 3.931 1.225.57 0 .983-.098 1.345-.294.362-.196.517-.44.517-.735a.612.612 0 0 0-.207-.49c-.103-.146-.31-.293-.569-.44-.258-.147-.982-.539-2.275-1.127-.983-.44-1.707-.93-2.173-1.47-.465-.538-.724-1.126-.724-1.86 0-1.029.414-1.813 1.241-2.45.931-.538 2.07-.881 3.414-.881z" id="a"/><path d="M167.974 7729.78c-.104-.839-.365-1.53-.835-1.974-.47-.444-1.095-.691-1.878-.691-.835 0-1.461.247-1.983.69-.47.445-.834 1.136-.939 2.025h5.635zm-2.817-4.78c1.826 0 3.234.541 4.278 1.623 1.043 1.082 1.565 2.607 1.565 4.525v.442h-8.713c.156 1.033.522 1.82 1.252 2.41.678.541 1.618.836 2.818.836.782 0 1.513-.147 2.243-.393.73-.246 1.46-.64 2.191-1.132v2.263c-1.46.934-3.182 1.426-5.217 1.426-1.93 0-3.496-.541-4.748-1.672-1.252-1.082-1.826-2.558-1.826-4.377 0-1.77.574-3.197 1.722-4.328 1.148-1.131 2.608-1.623 4.435-1.623z" id="b"/><path d="M181 7725.603a2.197 2.197 0 0 0-.582-.302 2.943 2.943 0 0 0-1.271-.301c-.741 0-1.376.251-2.012.753-.635.502-1.217 1.356-1.8 2.46h-.053v-3.012H172V7737h3.282v-5.372c0-.603.16-1.205.424-1.758a3.87 3.87 0 0 1 1.165-1.406c.476-.351 1.005-.552 1.482-.552.423 0 .953.201 1.535.552z" id="c"/><path d="M199.85 7725c1.25 0 2.25.398 3 1.245.75.846 1.15 1.892 1.15 3.236v7.47h-3.1v-7.121c0-.747-.2-1.345-.55-1.793-.35-.448-.85-.647-1.5-.647-.5 0-.95.15-1.35.398-.4.3-.9.747-1.4 1.395V7737H193v-11.701h3.1v1.643c.55-.647 1.15-1.145 1.75-1.444.6-.299 1.3-.498 2-.498z" id="d"/><path d="M214.758 7722h.256v3.109H221v2.319h-5.986v5.378c0 .543.153.937.512 1.283.358.345.767.493 1.33.493.716 0 1.586-.247 2.558-.79v2.468c-1.126.493-2.2.74-3.223.74-1.382 0-2.405-.345-3.172-1.086-.768-.74-1.126-1.677-1.126-2.91v-5.576H210v-.494z" id="e"/><path d="M221.54 7725l2.96 6.458 2.96-6.458H231l-8.614 18h-3.54l3.963-8.237L218 7725z" id="f"/><path d="M188.974 7729.78c-.104-.839-.365-1.53-.835-1.974-.47-.494-1.096-.691-1.878-.691-.835 0-1.461.247-1.983.69-.47.445-.835 1.136-.939 2.025h5.635zm-2.817-4.78c1.826 0 3.234.541 4.278 1.623 1.043 1.082 1.565 2.607 1.565 4.525v.442h-8.713c.156 1.033.522 1.82 1.252 2.41.73.59 1.617.836 2.817.836.783 0 1.514-.147 2.244-.393.73-.246 1.46-.64 2.191-1.132v2.263c-1.46.934-3.182 1.426-5.217 1.426-1.93 0-3.496-.541-4.748-1.672-1.252-1.131-1.826-2.558-1.826-4.377 0-1.77.574-3.197 1.722-4.328 1.148-1.131 2.608-1.623 4.435-1.623z" id="g"/><path d="M208.771 7725.387V7737h-3.542v-11.613zM207 7720c.571 0 1.029.148 1.429.494.4.346.571.741.571 1.236 0 .444-.171.84-.571 1.235a2.1 2.1 0 0 1-1.429.544 2.208 2.208 0 0 1-1.429-.544c-.4-.346-.571-.741-.571-1.235 0-.495.229-.89.629-1.236s.857-.494 1.371-.494z" id="h"/></defs><desc>Generated with Avocode.</desc><g transform="translate(-149 -7720)"><title>Group Copy</title><title>Shape</title><use xlink:href="#a" fill="#b5b5b5"/><title>Shape</title><use xlink:href="#b" fill="#b5b5b5"/><title>Shape</title><use xlink:href="#c" fill="#b5b5b5"/><title>Shape</title><use xlink:href="#d" fill="#b5b5b5"/><title>Shape</title><use xlink:href="#e" fill="#b5b5b5"/><title>Shape</title><use xlink:href="#f" fill="#b5b5b5"/><title>Shape</title><use xlink:href="#g" fill="#b5b5b5"/><title>Shape</title><use xlink:href="#h" fill="#b5b5b5"/></g></svg>