<svg width="42" height="42" xmlns="http://www.w3.org/2000/svg" xmlns:xlink="http://www.w3.org/1999/xlink" viewBox="0 0 42 42"><defs><path d="M113.292 7616.756c1.06.964 2.165 1.884 3.132 2.98.415.481.83.963 1.106 1.533.414.788.046 1.665-.691 1.709h-4.653c-1.198.087-2.165-.351-2.948-1.14-.645-.613-1.244-1.27-1.843-1.928-.23-.263-.507-.525-.83-.7-.644-.395-1.197-.263-1.566.35-.368.657-.46 1.358-.506 2.06-.046 1.05-.369 1.314-1.474 1.358-2.35.087-4.561-.22-6.634-1.359-1.843-1.008-3.225-2.41-4.469-3.987-2.395-3.067-4.238-6.485-5.896-9.946-.369-.789-.092-1.227.829-1.227a78.78 78.78 0 0 1 4.56 0c.6 0 1.014.35 1.244.876a27.853 27.853 0 0 0 3.087 5.433c.322.439.691.92 1.152 1.227.552.35.967.22 1.197-.35.139-.35.23-.745.277-1.14.138-1.314.138-2.672-.092-3.987-.139-.832-.6-1.358-1.474-1.533-.461-.088-.369-.22-.185-.482.369-.395.737-.658 1.428-.658h5.252c.83.176 1.013.526 1.106 1.315v5.52c0 .307.138 1.228.737 1.403.46.131.783-.22 1.06-.482 1.243-1.27 2.164-2.76 2.948-4.294.368-.701.644-1.402.967-2.103.23-.526.553-.789 1.198-.789h5.021c.138 0 .323 0 .46.044.83.131 1.106.482.83 1.27-.415 1.227-1.198 2.279-2.027 3.287-.83 1.095-1.75 2.19-2.58 3.286-.737 1.052-.645 1.577.277 2.454zm9.478-11.48c-.184-2.192-.507-3.683-1.06-5.042-.506-1.36-1.243-2.5-2.44-3.683-1.244-1.184-2.257-1.841-3.684-2.367-1.382-.483-2.81-.833-5.066-1.009-2.073-.175-2.763-.175-8.52-.175s-6.447 0-8.75.175c-2.118 0-3.684.351-5.066 1.009-1.381.482-2.44 1.183-3.684 2.367-1.243 1.184-1.934 2.368-2.44 3.683-.507 1.315-.876 2.85-.876 5.042C81 7607.599 81 7608.3 81 7614s0 6.4.184 8.724c.184 2.192.507 3.683 1.06 5.042.506 1.36 1.243 2.5 2.44 3.683 1.244 1.184 2.257 1.841 3.684 2.367 1.382.483 2.81.833 5.066 1.009 2.119.175 2.81.175 8.566.175 5.757 0 6.447 0 8.566-.175 2.256-.176 3.684-.483 5.066-1.009 1.381-.482 2.625-1.183 3.684-2.367 1.243-1.184 1.934-2.368 2.44-3.683.507-1.359.876-2.85 1.06-5.042.184-2.192.184-3.025.184-8.724-.046-5.7-.046-6.4-.23-8.724z" id="a"/></defs><desc>Generated with Avocode.</desc><g transform="translate(-81 -7593)"><title>Shape Copy 5</title><use xlink:href="#a" fill="#666"/></g></svg>