<svg id="SVGDoc" width="156" height="26" xmlns="http://www.w3.org/2000/svg" version="1.1" xmlns:xlink="http://www.w3.org/1999/xlink" xmlns:avocode="https://avocode.com/" viewBox="0 0 156 26"><defs><path d="M171,60.71739l0.97674,1.95652h5.55814l1.46512,-1.95652z" id="Path-0"/><path d="M181.49999,80.28261c4.04541,0 7.36359,-3.22557 7.50001,-7.24609c-0.11363,-3.0211 -1.77277,-5.86049 -4.22725,-7.42783l-1.38639,1.52191c2.4091,0.99947 3.79539,3.11196 3.79539,5.8832c0,3.20279 -2.59089,5.79229 -5.79539,5.79229c-3.11364,0 -5.68182,-2.47587 -5.79545,-5.56515l-1.59091,-0.86316v0.43157c0,4.11145 3.36363,7.47325 7.49999,7.47325z" id="Path-1"/><path d="M185.75511,73.09378c0,-2.42152 -1.36939,-4.12313 -3.74899,-4.7122l-1.1,-0.26176l7.09388,-7.57005l-1.01019,-1.7889l-9.98981,10.73331h2.91837c2.2449,0 4.04082,1.74528 4.04082,3.92683c0,1.94166 -1.41428,3.53412 -3.32245,3.86145c0.24693,0.04358 0.49388,0.06537 0.74081,0.06537c2.4245,0 4.37756,-1.89789 4.37756,-4.25405z" id="Path-2"/><path d="M172.8241,72.87515v-0.41863l-1.8241,0.96945c0,4.84724 4.10424,8.81316 9.12053,8.81316c1.80135,0 3.46579,-0.50675 4.87947,-1.38806c-1.02604,0.39659 -2.12046,0.61692 -3.28337,0.61692c-4.90229,0 -8.89253,-3.85577 -8.89253,-8.59284z" id="Path-3"/><path d="M171.98131,57.78261l-0.98131,1.54357h11.21491l-7.19623,7.49733l0.65421,1.71997l10.32711,-10.76087z" id="Path-4"/><path d="M207,73.14845c0,-2.76582 -2.26157,-5.0488 -5.14617,-5.24632l-1.01539,1.31703c0.13847,-0.02192 0.25386,-0.02192 0.39231,-0.02192c2.30768,0 4.1538,1.75611 4.1538,3.95121c0,2.96343 -2.53841,5.37805 -5.6538,5.37805c-3.11537,0 -5.65383,-2.41462 -5.65383,-5.37805c0,-2.85371 2.67692,-6.10244 2.67692,-6.10244l7.03849,-9.2634h-2.16927l-7.36153,9.61461c0,0 -2.26153,2.67808 -2.26153,5.75122c0,0.13174 0,0.24145 0,0.3732c0.20769,3.7536 3.48461,6.76097 7.49999,6.76097c4.13079,0 7.50001,-3.20489 7.50001,-7.13416z" id="Path-5"/><path d="M195,73.25796c0,2.25499 1.84445,4.08986 4.11112,4.08986c0.35556,0 0.68889,-0.04416 1.02223,-0.13258c-2.02223,-0.19902 -3.57779,-1.90131 -3.57779,-3.95728c0,-1.98973 5.33334,-8.62199 5.33334,-8.62199l5.1111,-6.85336h-2.33331l-7.3778,10.14738c0,0 -2.28889,2.89613 -2.28889,5.32797z" id="Path-6"/><path d="M203.61554,64.63043l-1.35145,1.79959c3.21554,0.61505 5.63884,3.37139 5.63884,6.69722c0,4.82933 -4.03107,8.7702 -8.97089,8.7702c-0.32621,0 -0.62913,-0.02285 -0.93204,-0.04561c0.86214,0.25058 1.74757,0.38729 2.67962,0.38729c5.12622,0 9.32038,-4.10033 9.32038,-9.11188c0,-4.03199 -2.6563,-7.24393 -6.38446,-8.49681z" id="Path-7"/><path d="M223.5684,59.33573c5.34257,0 9.6819,4.12683 9.6819,9.2077c0,5.08095 -4.33933,9.20771 -9.6819,9.20771c-3.96606,0 -6.53234,-3.328 -6.53234,-7.76551c0,-1.68626 0.37328,-3.21717 1.04984,-4.45965c-1.70308,1.44217 -2.79958,3.54998 -2.79958,5.90185c0,4.34867 3.70944,7.87652 8.28208,7.87652c6.29903,0 11.4316,-4.88121 11.4316,-10.87182c0,-0.53254 -0.04668,-1.06499 -0.11665,-1.57531c-1.23643,-5.30275 -5.62244,-9.0746 -11.31495,-9.0746c-4.85259,0 -8.74868,2.75122 -10.5684,6.83369c2.30965,-3.17278 6.1824,-5.28057 10.5684,-5.28057z" id="Path-8"/><path d="M223.4316,80.68593c-5.34252,0 -9.68187,-4.12676 -9.68187,-9.20771c0,-5.08087 4.33935,-9.2077 9.68187,-9.2077c3.9661,0 6.53233,3.32809 6.53233,7.76555c0,1.68621 -0.37322,3.21716 -1.04982,4.45962c1.70313,-1.4421 2.79963,-3.5499 2.79963,-5.90179c0,-4.34871 -3.70952,-7.8765 -8.28214,-7.8765c-6.29904,0 -11.4316,4.88121 -11.4316,10.87182c0,0.53244 0.04666,1.06497 0.11665,1.57526c1.23647,5.30274 5.62249,9.07465 11.31495,9.07465c4.8526,0 8.74873,-2.75124 10.5684,-6.83369c-2.30965,3.17278 -6.18239,5.28049 -10.5684,5.28049z" id="Path-9"/><path d="M241.505,63.04241c-1.0294,0 -1.87166,-0.82394 -1.87166,-1.83099c0,-1.00704 0.84226,-1.83099 1.87166,-1.83099c1.02942,0 1.87168,0.82394 1.87168,1.83099c0,1.00704 -0.84226,1.83099 -1.87168,1.83099zM241.49999,57.78261c-1.93666,0 -3.49999,1.52935 -3.49999,3.42391c0,1.89456 1.56333,3.42391 3.49999,3.42391c1.93668,0 3.50001,-1.52935 3.50001,-3.42391c0,-1.89456 -1.56333,-3.42391 -3.50001,-3.42391z" id="Path-10"/><path d="M266,61.85074v-1.13334h-12v18.58696h1.33334v-8.61349h9.33335v-1.13334h-9.33335v-7.70678z" id="Path-11"/><path d="M275.38462,78.17096v-17.45357h-1.38462v18.58696h12v-1.13338z" id="Path-12"/><path d="M327,60.71739h-15v1.13334h6.79686v17.45361h1.40625v-17.45361h6.79689z" id="Path-13"/><path d="M294.68001,72.05085l4.32001,-9.76943l4.31998,9.76943zM306.51506,79.30435h1.48494l-8.32498,-18.58696h-1.3725l-8.30252,18.58696h1.485l2.7,-6.12012h9.63001z" id="Path-14"/></defs><desc>Generated with Avocode.</desc><g transform="matrix(1,0,0,1,-171,-57)"><g><title>Group 2</title><g><title>Shape</title><use xlink:href="#Path-0" fill="#ffffff" fill-opacity="1"/></g><g><title>Shape</title><use xlink:href="#Path-1" fill="#ffffff" fill-opacity="1"/></g><g><title>Shape</title><use xlink:href="#Path-2" fill="#ffffff" fill-opacity="1"/></g><g><title>Shape</title><use xlink:href="#Path-3" fill="#ffffff" fill-opacity="1"/></g><g><title>Shape</title><use xlink:href="#Path-4" fill="#ffffff" fill-opacity="1"/></g><g><title>Shape</title><use xlink:href="#Path-5" fill="#ffffff" fill-opacity="1"/></g><g><title>Shape</title><use xlink:href="#Path-6" fill="#ffffff" fill-opacity="1"/></g><g><title>Shape</title><use xlink:href="#Path-7" fill="#ffffff" fill-opacity="1"/></g><g><title>Shape</title><use xlink:href="#Path-8" fill="#ffffff" fill-opacity="1"/></g><g><title>Shape</title><use xlink:href="#Path-9" fill="#ffffff" fill-opacity="1"/></g><g><title>Shape</title><use xlink:href="#Path-10" fill="#ffffff" fill-opacity="1"/></g><g><title>Shape</title><use xlink:href="#Path-11" fill="#ffffff" fill-opacity="1"/></g><g><title>Shape</title><use xlink:href="#Path-12" fill="#ffffff" fill-opacity="1"/></g><g><title>Shape</title><use xlink:href="#Path-13" fill="#ffffff" fill-opacity="1"/></g><g><title>Shape</title><use xlink:href="#Path-14" fill="#ffffff" fill-opacity="1"/></g></g></g></svg>