<svg id="SVGDoc" width="33" height="21" xmlns="http://www.w3.org/2000/svg" version="1.1" xmlns:xlink="http://www.w3.org/1999/xlink" xmlns:avocode="https://avocode.com/" viewBox="0 0 33 21"><defs><path d="M176.32589,7674.225c0,-0.4693 -0.53247,-0.93903 -0.92286,-1.33597c-1.02909,-1.08333 -2.41273,-1.6614 -3.86762,-1.6614c-1.4903,0 -2.87437,0.57807 -3.90347,1.625c-1.0645,1.04737 -1.63194,2.4557 -1.63194,3.97237c0,1.51667 0.56744,2.99737 1.59653,4.0807c1.0291,1.08333 2.44858,1.73333 3.90347,1.73333h0.03541c1.45489,0 2.80312,-0.65 3.83221,-1.69736c0.39039,-0.39737 0.92286,-0.93904 0.92286,-1.4443v3.50263h0.70952v-13h-0.70952v4.225zM171.53541,7681.91667c-2.66147,0 -4.82589,-2.31097 -4.82589,-5.0193c0,-1.3 0.49662,-2.6364 1.41948,-3.575c0.92243,-0.90307 2.12901,-1.51667 3.40641,-1.51667h0.03541c2.66147,0 4.82589,2.38333 4.82589,5.09167c-0.03541,2.67193 -2.19983,5.0193 -4.8613,5.0193z" id="Path-0"/><path d="M179.14,7670h9.55841v12.99987h-9.55841z" id="Path-1"/><path d="M187.6259,7671.8057c-0.62727,-0.4693 -1.51273,-0.57763 -2.58273,-0.28903l-5.16544,1.91403v-3.4307h-0.73773v13h0.73773v-8.775l5.34999,-2.02193c0.84863,-0.21667 1.51272,-0.14474 1.91863,0.18026c0.55319,0.39737 0.81137,1.26404 0.81137,2.56404v8.05263h0.73818v-8.01667c0.03682,-1.55263 -0.33227,-2.6 -1.07,-3.17763" id="Path-2"/><path d="M195.77857,7680.73379c1.61071,-0.71062 2.75178,-2.34457 2.75178,-4.29866c0,-1.24305 -0.46966,-2.37995 -1.20804,-3.23252l1.61071,-1.70514l-0.46965,-0.49747l-1.6781,1.66976c-0.73797,-0.60405 -1.6777,-1.06571 -2.68439,-1.06571h-0.03349c-1.17455,0 -2.28212,0.53285 -3.12097,1.4208c-0.83885,0.88838 -1.30891,2.09604 -1.30891,3.33952c0,1.24304 0.40268,2.45113 1.24193,3.33909c0.80536,0.85256 1.94601,1.35004 2.95271,1.38542c2.3491,0 4.36249,2.06023 4.36249,4.58256c0,2.52233 -1.91252,4.65375 -4.2951,4.65375c-2.38259,0 -4.22855,-2.02485 -4.22855,-4.5118h-0.67099c0,2.84204 2.24822,5.18661 5,5.18661c2.75178,0 5,-2.41576 5,-5.32856c-0.03349,-2.23799 -1.37548,-4.19166 -3.22143,-4.93765M190.37589,7676.39975c0,-1.06571 0.40268,-2.13143 1.10757,-2.87742c0.70448,-0.746 1.64421,-1.20767 2.61742,-1.20767c2.08037,0 3.75847,1.91828 3.75847,4.08509c0,2.1668 -1.6781,4.08508 -3.72499,4.08508c-1.00669,0 -1.94642,-0.46166 -2.6509,-1.24304c-0.73838,-0.746 -1.10757,-1.77633 -1.10757,-2.84204" id="Path-3"/><clipPath id="clip-AC441990-DE22-4D66-A8DC-EBE3CF1CB2C1"><use xlink:href="#Path-1" /></clipPath></defs><desc>Generated with Avocode.</desc><g transform="matrix(1,0,0,1,-166,-7670)"><g><title>Group 9 Copy 2</title><g><title>Fill 2</title><use xlink:href="#Path-0" fill="#bfbfbf" fill-opacity="1"/></g><g><title>Group 6</title><g><title>Clip 5</title></g><g clip-path="url(#clip-AC441990-DE22-4D66-A8DC-EBE3CF1CB2C1)"><title>Fill 4</title><use xlink:href="#Path-2" fill="#bfbfbf" fill-opacity="1"/></g></g><g><title>Fill 7</title><use xlink:href="#Path-3" fill="#bfbfbf" fill-opacity="1"/></g></g></g></svg>