<svg id="SVGDoc" width="42" height="42" xmlns="http://www.w3.org/2000/svg" version="1.1" xmlns:xlink="http://www.w3.org/1999/xlink" xmlns:avocode="https://avocode.com/" viewBox="0 0 42 42"><defs><path d="M181.81559,7605.27558c-0.18442,-2.19207 -0.50714,-3.68268 -1.06039,-5.04175c-0.50714,-1.35909 -1.24479,-2.49897 -2.44348,-3.68268c-1.2448,-1.18371 -2.25908,-1.84133 -3.68812,-2.36743c-1.38311,-0.48226 -2.81232,-0.83299 -5.07139,-1.00835c-2.07466,-0.17537 -2.76621,-0.17537 -8.52916,-0.17537c-5.76287,0 -6.45443,0 -8.75959,0.17537c-2.12075,0 -3.68827,0.35073 -5.07136,1.00835c-1.38309,0.48225 -2.44347,1.18372 -3.68825,2.36743c-1.24479,1.18371 -1.93634,2.36742 -2.44347,3.68268c-0.50714,1.31524 -0.87597,2.84968 -0.87597,5.04175c-0.18441,2.32359 -0.18441,3.02505 -0.18441,8.72442c0,5.6994 0,6.4008 0.18441,8.72441c0.18442,2.19206 0.50714,3.68273 1.06038,5.04185c0.50713,1.35895 1.24479,2.49883 2.44346,3.68256c1.2448,1.18372 2.25907,1.84144 3.68827,2.36745c1.38309,0.48233 2.8123,0.83295 5.07136,1.00834c2.12074,0.17539 2.8123,0.17539 8.57517,0.17539c0.32273,0 0.64545,0 0.92207,0v-16.61587h-4.37983v-5.6994h4.37983v-2.19207c0,-3.81417 2.99673,-7.23379 6.68502,-7.23379h4.84087v5.65553h-4.84087c-0.50714,0 -1.15259,0.61378 -1.15259,1.53442v2.27976h5.94736v5.65555h-5.94736v16.57202c0.73766,-0.04385 1.2909,-0.04385 2.07466,-0.13154c2.25907,-0.17539 3.68828,-0.48216 5.07139,-1.00834c1.38294,-0.48216 2.62773,-1.18373 3.68812,-2.36745c1.24479,-1.18373 1.93634,-2.36746 2.44348,-3.68256c0.50714,-1.35912 0.87597,-2.84979 1.06039,-5.04185c0.18441,-2.19207 0.18441,-3.02501 0.18441,-8.72441c0,-5.69937 0,-6.40083 -0.18441,-8.72442z" id="Path-0"/></defs><desc>Generated with Avocode.</desc><g transform="matrix(1,0,0,1,-140,-7593)"><g><title>Shape Copy 4</title><use xlink:href="#Path-0" fill="#666666" fill-opacity="1"/></g></g></svg>