<svg id="SVGDoc" width="44" height="42" xmlns="http://www.w3.org/2000/svg" version="1.1" xmlns:xlink="http://www.w3.org/1999/xlink" xmlns:avocode="https://avocode.com/" viewBox="0 0 44 42"><defs><path d="M211.66732,7614.00508c0,-3.89968 3.28101,-7.061 7.32835,-7.061c4.04733,0 7.32833,3.16132 7.32833,7.061c0,3.89969 -3.281,7.061 -7.32833,7.061c-4.04734,0 -7.32835,-3.16131 -7.32835,-7.061zM241,7614c0,5.712 0,6.552 -0.18326,8.736c-0.18326,2.184 -0.54995,3.696 -1.10008,5.04c-0.54995,1.344 -1.28334,2.52 -2.56667,3.696c-1.09991,1.176 -2.38325,1.848 -3.85002,2.352c-1.46659,0.504 -2.93319,0.84 -5.31661,1.008c-2.19998,0.168 -2.93336,0.168 -8.98336,0.168c-6.04998,0 -6.78331,0 -8.98331,-0.168c-2.38335,-0.168 -3.85001,-0.504 -5.31668,-1.008c-1.46667,-0.504 -2.56668,-1.176 -3.85,-2.352c-1.28333,-1.176 -2.01667,-2.352 -2.56667,-3.696c-0.55,-1.344 -0.91667,-2.856 -1.10001,-5.04c-0.18333,-2.352 -0.18333,-3.024 -0.18333,-8.736c0,-5.712 0,-6.384 0.18333,-8.736c0,-2.184 0.36667,-3.696 0.91667,-5.04c0.55,-1.344 1.28333,-2.52 2.56667,-3.696c1.28333,-1.176 2.38334,-1.848 3.85001,-2.352c1.46667,-0.672 3.11666,-1.008 5.31668,-1.008c2.38333,-0.168 3.11666,-0.168 9.16664,-0.168c6.05,0 6.78338,0 8.98336,0.168c2.38342,0.168 3.85002,0.504 5.31661,1.008c1.46677,0.504 2.56668,1.176 3.85002,2.352c1.28333,1.176 2.01672,2.352 2.56667,3.696c0.55013,1.344 0.91682,2.856 1.10008,5.04c0.18326,2.352 0.18326,3.024 0.18326,8.736zM230.37678,7614c0,-5.88 -5.13561,-10.752 -11.37178,-10.752c-6.23605,0 -11.37166,4.872 -11.37166,10.752c0,5.88 5.13561,10.752 11.37166,10.752c6.23617,0 11.37178,-4.872 11.37178,-10.752zM233.29997,7602.744c0,-1.344 -1.0999,-2.52 -2.56667,-2.52c-1.4666,0 -2.5665,1.176 -2.5665,2.52c0,1.344 1.0999,2.52 2.5665,2.52c1.46677,0 2.56667,-1.176 2.56667,-2.52z" id="Path-0"/></defs><desc>Generated with Avocode.</desc><g transform="matrix(1,0,0,1,-197,-7593)"><g><title>Combined Shape Copy 2</title><use xlink:href="#Path-0" fill="#666666" fill-opacity="1"/></g></g></svg>