<svg id="SVGDoc" width="38" height="28" xmlns="http://www.w3.org/2000/svg" version="1.1" xmlns:xlink="http://www.w3.org/1999/xlink" xmlns:avocode="https://avocode.com/" viewBox="0 0 38 28"><defs><path d="M30,6387.48758c0,-4.98225 1.16256,-8.91815 3.48771,-11.80786c2.35788,-2.88968 5.78016,-4.78292 10.26669,-5.67972v5.18153c-3.34036,1.06287 -5.58359,2.88963 -6.72983,5.48036c-0.58949,1.36185 -0.83509,2.77342 -0.7368,4.23488h7.71223v13.10323h-14zM54,6387.48758c0,-5.04865 1.19527,-9.00123 3.58597,-11.85766c2.42336,-2.85649 5.81292,-4.73312 10.16843,-5.62992v5.18153c-3.30756,1.02959 -5.5345,2.88963 -6.68074,5.58005c-0.65497,1.42825 -0.91694,2.80662 -0.78591,4.13519h7.71225v13.10323h-14z" id="Path-0"/></defs><desc>Generated with Avocode.</desc><g transform="matrix(1,0,0,1,-30,-6370)"><g><title>Shape Copy 4</title><use xlink:href="#Path-0" fill="#000000" fill-opacity="1"/></g></g></svg>