<svg id="SVGDoc" width="82" height="23" xmlns="http://www.w3.org/2000/svg" version="1.1" xmlns:xlink="http://www.w3.org/1999/xlink" xmlns:avocode="https://avocode.com/" viewBox="0 0 82 23"><defs><path d="M153.65517,7725c0.67242,0 1.29311,0.04899 1.91381,0.19593c0.62068,0.14694 1.24136,0.39182 1.86205,0.6857v2.44899c-0.62069,-0.39184 -1.24138,-0.68571 -1.96552,-0.88163c-0.67241,-0.2449 -1.2931,-0.34286 -1.86207,-0.34286c-0.46551,0 -0.82759,0.09796 -1.08621,0.24489c-0.25862,0.14694 -0.41378,0.39186 -0.41378,0.68573c0,0.19592 0.10345,0.34285 0.31034,0.53877c0.2069,0.19592 0.82759,0.48981 1.81035,0.93063c1.39655,0.68571 2.3793,1.27346 2.94827,1.86123c0.56896,0.58775 0.82759,1.22451 0.82759,2.00818c0,1.12653 -0.4138,2.00819 -1.24139,2.64485c-0.82758,0.63676 -1.91378,0.97959 -3.31034,0.97959c-0.8793,0 -1.65517,-0.09791 -2.43103,-0.29383c-0.77586,-0.19592 -1.39656,-0.39183 -1.86207,-0.63676v-2.54692c1.55172,0.83266 2.89655,1.2245 3.93103,1.2245c0.56897,0 0.98276,-0.09797 1.34483,-0.29389c0.36207,-0.19593 0.51725,-0.44082 0.51725,-0.7347c0,-0.19593 -0.05173,-0.34286 -0.20689,-0.4898c-0.10346,-0.14694 -0.31036,-0.29386 -0.56898,-0.4408c-0.25861,-0.14694 -0.98275,-0.53877 -2.27585,-1.12653c-0.98276,-0.44082 -1.70691,-0.93062 -2.17243,-1.46939c-0.46551,-0.53878 -0.72413,-1.12656 -0.72413,-1.86126c0,-1.02857 0.41379,-1.81226 1.24138,-2.44899c0.93103,-0.53878 2.06896,-0.88163 3.41379,-0.88163z" id="Path-0"/><path d="M167.97395,7729.78034c-0.10435,-0.83916 -0.36521,-1.53024 -0.83479,-1.9745c-0.46956,-0.44426 -1.09565,-0.69108 -1.87827,-0.69108c-0.83478,0 -1.46087,0.24682 -1.9826,0.69108c-0.46957,0.44426 -0.83478,1.13532 -0.93913,2.02385h5.63479zM165.15656,7725c1.82609,0 3.23478,0.54098 4.27827,1.62294c1.04352,1.08197 1.56517,2.60656 1.56517,4.52459v0.44263h-8.71302c0.15652,1.03278 0.52174,1.81965 1.25218,2.40981c0.67826,0.54099 1.61739,0.83607 2.81739,0.83607c0.78261,0 1.51306,-0.14753 2.2435,-0.39343c0.73045,-0.2459 1.46087,-0.63934 2.19129,-1.13114v2.26229c-1.46084,0.93439 -3.1826,1.42624 -5.21739,1.42624c-1.93045,0 -3.49568,-0.54105 -4.74786,-1.67217c-1.25217,-1.08195 -1.82609,-2.55734 -1.82609,-4.377c0,-1.7705 0.57393,-3.19674 1.72175,-4.32789c1.14784,-1.13114 2.60871,-1.62294 4.43481,-1.62294z" id="Path-1"/><path d="M181,7725.60252c-0.21177,-0.15063 -0.42354,-0.25104 -0.58236,-0.30125c-0.42353,-0.20083 -0.84706,-0.30127 -1.27059,-0.30127c-0.74118,0 -1.37646,0.25105 -2.01176,0.75314c-0.63529,0.50209 -1.21764,1.35566 -1.79999,2.46026h-0.05294v-3.01255h-3.28236v11.79915h3.28236v-5.37238c0,-0.60251 0.15882,-1.20503 0.42352,-1.75732c0.2647,-0.5523 0.68823,-1.05439 1.16471,-1.40586c0.47647,-0.35145 1.00588,-0.55231 1.48234,-0.55231c0.42353,0 0.95296,0.20086 1.53531,0.55231z" id="Path-2"/><path d="M199.84998,7725c1.24999,0 2.24999,0.39834 2.99997,1.24481c0.75002,0.84647 1.15005,1.89211 1.15005,3.23649v7.46888h-3.10002v-7.12032c0,-0.74688 -0.2,-1.34438 -0.55,-1.79251c-0.35,-0.44813 -0.85,-0.64733 -1.5,-0.64733c-0.49999,0 -0.95,0.1494 -1.35,0.39837c-0.39999,0.29875 -0.89999,0.74687 -1.39999,1.39417v7.81744h-3.09999v-11.70123h3.09999v1.64314c0.55,-0.6473 1.15,-1.14523 1.74999,-1.44399c0.6,-0.29875 1.3,-0.49792 2,-0.49792z" id="Path-3"/><path d="M214.75813,7722h0.25581v3.10855h5.98606v2.31908h-5.98606v5.37829c0,0.54274 0.15349,0.93747 0.51162,1.28294c0.35814,0.34537 0.76745,0.49337 1.33024,0.49337c0.71628,0 1.58604,-0.24674 2.55813,-0.78947v2.46714c-1.12557,0.49337 -2.19999,0.7401 -3.22324,0.7401c-1.3814,0 -2.40465,-0.34537 -3.1721,-1.08557c-0.76744,-0.7401 -1.12557,-1.67757 -1.12557,-2.91114v-5.57566h-1.89302v-0.49342z" id="Path-4"/><path d="M221.54065,7725l2.95935,6.45762l2.95934,-6.45762h3.54066l-8.61382,18h-3.54065l3.96342,-8.23731l-4.80895,-9.76269z" id="Path-5"/><path d="M188.97388,7729.78034c-0.10435,-0.83916 -0.36522,-1.53024 -0.83479,-1.9745c-0.46955,-0.49362 -1.09564,-0.69108 -1.87825,-0.69108c-0.83478,0 -1.46086,0.24682 -1.98259,0.69108c-0.46957,0.44426 -0.83479,1.13532 -0.93914,2.02385h5.63477zM186.1565,7725c1.82608,0 3.23477,0.54098 4.27824,1.62294c1.04351,1.08197 1.56526,2.60656 1.56526,4.52459v0.44263h-8.71305c0.15651,1.03278 0.52173,1.81965 1.25216,2.40981c0.73044,0.59017 1.61738,0.83607 2.81737,0.83607c0.78261,0 1.51305,-0.14753 2.24348,-0.39343c0.73045,-0.2459 1.46087,-0.63934 2.19128,-1.13114v2.26229c-1.46083,0.93439 -3.18258,1.42624 -5.21735,1.42624c-1.93044,0 -3.49564,-0.54105 -4.74781,-1.67217c-1.25217,-1.13113 -1.82608,-2.55734 -1.82608,-4.377c0,-1.7705 0.57391,-3.19674 1.72173,-4.32789c1.14783,-1.13114 2.60869,-1.62294 4.43477,-1.62294z" id="Path-6"/><path d="M208.77142,7725.38661v11.61339h-3.54285v-11.61339zM207,7720c0.57143,0 1.02857,0.14826 1.42857,0.49419c0.4,0.34593 0.57143,0.74128 0.57143,1.23547c0,0.44477 -0.17143,0.84011 -0.57143,1.23546c-0.4,0.34593 -0.85714,0.5436 -1.42857,0.5436c-0.51429,0 -1.02857,-0.19767 -1.42857,-0.5436c-0.4,-0.34593 -0.57143,-0.74128 -0.57143,-1.23546c0,-0.49419 0.22857,-0.88954 0.62857,-1.23547c0.4,-0.34593 0.85714,-0.49419 1.37143,-0.49419z" id="Path-7"/></defs><desc>Generated with Avocode.</desc><g transform="matrix(1,0,0,1,-149,-7720)"><g><title>Group Copy</title><g><title>Shape</title><use xlink:href="#Path-0" fill="#b5b5b5" fill-opacity="1"/></g><g><title>Shape</title><use xlink:href="#Path-1" fill="#b5b5b5" fill-opacity="1"/></g><g><title>Shape</title><use xlink:href="#Path-2" fill="#b5b5b5" fill-opacity="1"/></g><g><title>Shape</title><use xlink:href="#Path-3" fill="#b5b5b5" fill-opacity="1"/></g><g><title>Shape</title><use xlink:href="#Path-4" fill="#b5b5b5" fill-opacity="1"/></g><g><title>Shape</title><use xlink:href="#Path-5" fill="#b5b5b5" fill-opacity="1"/></g><g><title>Shape</title><use xlink:href="#Path-6" fill="#b5b5b5" fill-opacity="1"/></g><g><title>Shape</title><use xlink:href="#Path-7" fill="#b5b5b5" fill-opacity="1"/></g></g></g></svg>