<svg id="SVGDoc" width="42" height="42" xmlns="http://www.w3.org/2000/svg" version="1.1" xmlns:xlink="http://www.w3.org/1999/xlink" xmlns:avocode="https://avocode.com/" viewBox="0 0 42 42"><defs><path d="M113.2916,7616.75556c1.05955,0.9641 2.16517,1.8842 3.13258,2.97959c0.41461,0.48188 0.82921,0.96393 1.10545,1.53345c0.41461,0.78881 0.04624,1.66509 -0.69084,1.70891h-4.65282c-1.19775,0.08764 -2.16517,-0.35059 -2.94832,-1.13922c-0.64494,-0.61352 -1.24382,-1.27069 -1.8427,-1.92786c-0.23033,-0.26294 -0.50674,-0.52587 -0.82921,-0.70116c-0.64494,-0.39423 -1.19776,-0.26277 -1.56629,0.35059c-0.36855,0.65717 -0.46067,1.35833 -0.50675,2.05932c-0.04606,1.05157 -0.36854,1.3145 -1.47415,1.35833c-2.34945,0.08764 -4.56068,-0.21911 -6.63365,-1.35833c-1.8427,-1.00775 -3.2247,-2.4099 -4.46851,-3.98718c-2.3955,-3.06723 -4.23819,-6.48472 -5.8966,-9.94623c-0.36854,-0.78869 -0.09213,-1.22684 0.82922,-1.22684c1.52021,-0.0438 3.04041,-0.0438 4.56064,0c0.59886,0 1.01347,0.35053 1.24381,0.87631c0.82921,1.92791 1.84268,3.72441 3.0865,5.43314c0.32247,0.43822 0.69101,0.9201 1.15167,1.22686c0.5528,0.35058 0.96741,0.21911 1.1977,-0.35058c0.1382,-0.35042 0.23034,-0.74482 0.27641,-1.13922c0.1382,-1.31434 0.1382,-2.67267 -0.09213,-3.98718c-0.1382,-0.8325 -0.59883,-1.3583 -1.47411,-1.53357c-0.46065,-0.08763 -0.36853,-0.21908 -0.18425,-0.48197c0.36852,-0.39435 0.73706,-0.65723 1.42802,-0.65723h5.25169c0.82922,0.17525 1.01349,0.52578 1.10563,1.31446v5.52076c0,0.30675 0.1382,1.22685 0.73707,1.40215c0.46067,0.13146 0.78316,-0.21911 1.05955,-0.48205c1.24382,-1.27052 2.16517,-2.76031 2.94833,-4.2939c0.36854,-0.70104 0.64494,-1.4021 0.96741,-2.10314c0.23033,-0.5258 0.5528,-0.78868 1.19776,-0.78868h5.02135c0.1382,0 0.32248,0 0.46067,0.0438c0.82905,0.13144 1.10546,0.48198 0.82905,1.27066c-0.41461,1.22684 -1.19759,2.27848 -2.0268,3.28623c-0.82922,1.09539 -1.75057,2.19078 -2.57978,3.28618c-0.73708,1.05157 -0.64494,1.57727 0.27641,2.45355zM122.76973,7605.27558c-0.18421,-2.19207 -0.50658,-3.68268 -1.05921,-5.04175c-0.50659,-1.35909 -1.24344,-2.49897 -2.44081,-3.68268c-1.24343,-1.18371 -2.25643,-1.84133 -3.68407,-2.36743c-1.38159,-0.48226 -2.80924,-0.83299 -5.06583,-1.00835c-2.07239,-0.17537 -2.76318,-0.17537 -8.51981,-0.17537c-5.75656,0 -6.44735,0 -8.74999,0.17537c-2.11842,0 -3.68422,0.35073 -5.06579,1.00835c-1.38158,0.48225 -2.44079,1.18372 -3.68421,2.36743c-1.24343,1.18371 -1.93422,2.36742 -2.4408,3.68268c-0.50658,1.31524 -0.875,2.84968 -0.875,5.04175c-0.18421,2.32359 -0.18421,3.02505 -0.18421,8.72442c0,5.6994 0,6.4008 0.18421,8.72441c0.18421,2.19206 0.50658,3.68273 1.05921,5.04185c0.50658,1.35895 1.24343,2.49883 2.44079,3.68256c1.24343,1.18372 2.25659,1.84144 3.68422,2.36745c1.38157,0.48233 2.80922,0.83295 5.0658,1.00834c2.11842,0.17539 2.80921,0.17539 8.56577,0.17539c5.75663,0 6.44742,0 8.56586,-0.17539c2.2566,-0.17539 3.68424,-0.48216 5.06583,-1.00834c1.38142,-0.48216 2.62485,-1.18373 3.68407,-2.36745c1.24343,-1.18373 1.93423,-2.36746 2.44081,-3.68256c0.50658,-1.35912 0.87501,-2.84979 1.05922,-5.04185c0.18421,-2.19207 0.18421,-3.02501 0.18421,-8.72441c-0.04605,-5.69937 -0.04605,-6.40083 -0.23027,-8.72442z" id="Path-0"/></defs><desc>Generated with Avocode.</desc><g transform="matrix(1,0,0,1,-81,-7593)"><g><title>Shape Copy 5</title><use xlink:href="#Path-0" fill="#666666" fill-opacity="1"/></g></g></svg>